  0
SECTION
  2
HEADER
  9
$ACADVER
  1
AC1009
  0
ENDSEC
  0
SECTION
  2
TABLES
  0
TABLE
  2
LAYER
  70
2
  0
LAYER
  2
Layer_0
  70
0
  62
7
  6
CONTINUOUS
  0
LAYER
  2
Layer_2
  70
0
  62
1
  6
CONTINUOUS
  0
ENDTAB
  0
ENDSEC
  0
SECTION
  2
ENTITIES
  0
POLYLINE
  5
90
  8
Layer_0
  62
7
  70
1
  66
1
  10
0
  20
0
  30
0
  0
VERTEX
  5
90
  8
Layer_0
  10
289.04605
  20
14.308136
  0
VERTEX
  5
91
  8
Layer_0
  10
16.867218
  20
14.308136
  0
VERTEX
  5
92
  8
Layer_0
  10
16.867218
  20
187.82214
  0
VERTEX
  5
93
  8
Layer_0
  10
289.04605
  20
187.82214
  0
SEQEND
  0
POLYLINE
  5
95
  8
Layer_0
  62
7
  66
1
  10
0
  20
0
  30
0
  0
VERTEX
  5
95
  8
Layer_0
  10
16.096024
  20
99.35965
  0
VERTEX
  5
96
  8
Layer_0
  10
100.3215
  20
99.970276
  0
VERTEX
  5
97
  8
Layer_0
  10
100.36483
  20
109.97017
  0
VERTEX
  5
98
  8
Layer_0
  10
16.314682
  20
110.08714
  0
SEQEND
  0
POLYLINE
  5
9a
  8
Layer_0
  62
7
  66
1
  10
0
  20
0
  30
0
  0
VERTEX
  5
9a
  8
Layer_0
  10
288.55054
  20
110.11209
  0
VERTEX
  5
9b
  8
Layer_0
  10
210.26886
  20
110.12305
  0
VERTEX
  5
9c
  8
Layer_0
  10
210.16431
  20
100.12373
  0
VERTEX
  5
9d
  8
Layer_0
  10
288.27838
  20
99.38649
  0
SEQEND
  0
POLYLINE
  5
9f
  8
Layer_2
  62
1
  70
1
  66
1
  10
0
  20
0
  30
0
  0
VERTEX
  5
9f
  8
Layer_2
  10
29.196703
  20
172.28589
  0
VERTEX
  5
a0
  8
Layer_2
  10
24.473026
  20
172.28589
  0
VERTEX
  5
a1
  8
Layer_2
  10
24.473026
  20
181.07837
  0
VERTEX
  5
a2
  8
Layer_2
  10
23.203671
  20
181.07837
  0
VERTEX
  5
a3
  8
Layer_2
  10
23.203671
  20
171.10962
  0
VERTEX
  5
a4
  8
Layer_2
  10
29.196703
  20
171.10962
  0
SEQEND
  0
POLYLINE
  5
a6
  8
Layer_2
  62
1
  70
1
  66
1
  10
0
  20
0
  30
0
  0
VERTEX
  5
a6
  8
Layer_2
  10
41.417191
  20
181.07837
  0
VERTEX
  5
a7
  8
Layer_2
  10
40.239914
  20
181.07837
  0
VERTEX
  5
a8
  8
Layer_2
  10
40.239914
  20
179.67065
  0
VERTEX
  5
a9
  8
Layer_2
  10
41.417191
  20
179.67065
  0
SEQEND
  0
POLYLINE
  5
ab
  8
Layer_2
  62
1
  70
1
  66
1
  10
0
  20
0
  30
0
  0
VERTEX
  5
ab
  8
Layer_2
  10
31.741522
  20
181.07837
  0
VERTEX
  5
ac
  8
Layer_2
  10
30.563774
  20
181.07837
  0
VERTEX
  5
ad
  8
Layer_2
  10
30.563774
  20
179.67065
  0
VERTEX
  5
ae
  8
Layer_2
  10
31.741522
  20
179.67065
  0
SEQEND
  0
POLYLINE
  5
b0
  8
Layer_2
  62
1
  70
1
  66
1
  10
0
  20
0
  30
0
  0
VERTEX
  5
b0
  8
Layer_2
  10
77.014587
  20
170.97437
  42
0.19322185
  0
VERTEX
  5
b1
  8
Layer_2
  10
79.064255
  20
172.08032
  42
0.14605559
  0
VERTEX
  5
b2
  8
Layer_2
  10
79.763298
  20
173.8606
  42
0.10966474
  0
VERTEX
  5
b3
  8
Layer_2
  10
79.592766
  20
176.35669
  0
VERTEX
  5
b4
  8
Layer_2
  10
79.413923
  20
176.79013
  0
VERTEX
  5
b5
  8
Layer_2
  10
79.179172
  20
177.18467
  0
VERTEX
  5
b6
  8
Layer_2
  10
78.894266
  20
177.53574
  0
VERTEX
  5
b7
  8
Layer_2
  10
78.564958
  20
177.83878
  0
VERTEX
  5
b8
  8
Layer_2
  10
78.197
  20
178.08921
  0
VERTEX
  5
b9
  8
Layer_2
  10
77.796145
  20
178.28248
  0
VERTEX
  5
ba
  8
Layer_2
  10
77.368146
  20
178.41401
  0
VERTEX
  5
bb
  8
Layer_2
  10
76.918755
  20
178.47925
  42
0.21358741
  0
VERTEX
  5
bc
  8
Layer_2
  10
74.383331
  20
177.69214
  42
0.15089856
  0
VERTEX
  5
bd
  8
Layer_2
  10
73.461617
  20
176.07837
  42
0.12840281
  0
VERTEX
  5
be
  8
Layer_2
  10
73.53537
  20
173.10522
  0
VERTEX
  5
bf
  8
Layer_2
  10
73.708586
  20
172.6651
  0
VERTEX
  5
c0
  8
Layer_2
  10
73.940064
  20
172.26445
  0
VERTEX
  5
c1
  8
Layer_2
  10
74.223739
  20
171.90814
  0
VERTEX
  5
c2
  8
Layer_2
  10
74.553541
  20
171.60103
  0
VERTEX
  5
c3
  8
Layer_2
  10
74.923404
  20
171.34796
  0
VERTEX
  5
c4
  8
Layer_2
  10
75.327258
  20
171.15381
  0
VERTEX
  5
c5
  8
Layer_2
  10
75.759036
  20
171.02343
  0
VERTEX
  5
c6
  8
Layer_2
  10
76.21267
  20
170.96167
  42
0.052451744
  0
SEQEND
  0
POLYLINE
  5
c8
  8
Layer_2
  62
1
  70
1
  66
1
  10
0
  20
0
  30
0
  0
VERTEX
  5
c8
  8
Layer_2
  10
44.387634
  20
175.05347
  42
-0.097962625
  0
VERTEX
  5
c9
  8
Layer_2
  10
44.600914
  20
176.4397
  42
-0.23192864
  0
VERTEX
  5
ca
  8
Layer_2
  10
45.696922
  20
177.36353
  42
-0.24557899
  0
VERTEX
  5
cb
  8
Layer_2
  10
47.215263
  20
177.09253
  42
-0.1968552
  0
VERTEX
  5
cc
  8
Layer_2
  10
47.643707
  20
176.15601
  42
-0.030456682
  0
VERTEX
  5
cd
  8
Layer_2
  10
47.678001
  20
175.5022
  0
VERTEX
  5
ce
  8
Layer_2
  10
47.678001
  20
171.10962
  0
VERTEX
  5
cf
  8
Layer_2
  10
48.855747
  20
171.10962
  42
0.0022959267
  0
VERTEX
  5
d0
  8
Layer_2
  10
48.854809
  20
175.75464
  42
0.09853722
  0
VERTEX
  5
d1
  8
Layer_2
  10
48.646225
  20
177.22778
  42
0.21211611
  0
VERTEX
  5
d2
  8
Layer_2
  10
47.635719
  20
178.25952
  42
0.25595648
  0
VERTEX
  5
d3
  8
Layer_2
  10
44.939629
  20
178.02954
  42
0.092031164
  0
VERTEX
  5
d4
  8
Layer_2
  10
44.269718
  20
177.30444
  0
VERTEX
  5
d5
  8
Layer_2
  10
44.269718
  20
178.3313
  0
VERTEX
  5
d6
  8
Layer_2
  10
43.209885
  20
178.3313
  0
VERTEX
  5
d7
  8
Layer_2
  10
43.209885
  20
171.10962
  0
VERTEX
  5
d8
  8
Layer_2
  10
44.387634
  20
171.10962
  0
SEQEND
  0
POLYLINE
  5
da
  8
Layer_2
  62
1
  70
1
  66
1
  10
0
  20
0
  30
0
  0
VERTEX
  5
da
  8
Layer_2
  10
82.378113
  20
174.8562
  0
VERTEX
  5
db
  8
Layer_2
  10
82.380936
  20
175.09546
  42
-0.11198359
  0
VERTEX
  5
dc
  8
Layer_2
  10
82.677368
  20
176.61206
  0
VERTEX
  5
dd
  8
Layer_2
  10
82.850305
  20
176.85607
  0
VERTEX
  5
de
  8
Layer_2
  10
83.056572
  20
177.06037
  0
VERTEX
  5
df
  8
Layer_2
  10
83.290225
  20
177.22278
  0
VERTEX
  5
e0
  8
Layer_2
  10
83.545319
  20
177.34116
  0
VERTEX
  5
e1
  8
Layer_2
  10
83.815913
  20
177.41336
  0
VERTEX
  5
e2
  8
Layer_2
  10
84.096063
  20
177.43722
  0
VERTEX
  5
e3
  8
Layer_2
  10
84.379828
  20
177.41058
  0
VERTEX
  5
e4
  8
Layer_2
  10
84.661263
  20
177.3313
  42
-0.25009104
  0
VERTEX
  5
e5
  8
Layer_2
  10
85.256477
  20
176.51538
  42
-0.057559689
  0
VERTEX
  5
e6
  8
Layer_2
  10
85.328354
  20
175.80151
  0
VERTEX
  5
e7
  8
Layer_2
  10
85.328354
  20
171.10962
  0
VERTEX
  5
e8
  8
Layer_2
  10
86.506104
  20
171.10962
  0
VERTEX
  5
e9
  8
Layer_2
  10
86.506104
  20
175.30493
  42
-0.12468923
  0
VERTEX
  5
ea
  8
Layer_2
  10
86.77858
  20
176.6355
  0
VERTEX
  5
eb
  8
Layer_2
  10
86.952757
  20
176.87615
  0
VERTEX
  5
ec
  8
Layer_2
  10
87.159826
  20
177.07674
  0
VERTEX
  5
ed
  8
Layer_2
  10
87.393782
  20
177.2352
  0
VERTEX
  5
ee
  8
Layer_2
  10
87.648625
  20
177.34944
  0
VERTEX
  5
ef
  8
Layer_2
  10
87.918354
  20
177.41738
  0
VERTEX
  5
f0
  8
Layer_2
  10
88.196967
  20
177.43692
  0
VERTEX
  5
f1
  8
Layer_2
  10
88.478462
  20
177.40599
  0
VERTEX
  5
f2
  8
Layer_2
  10
88.756839
  20
177.32251
  42
-0.29609996
  0
VERTEX
  5
f3
  8
Layer_2
  10
89.415009
  20
176.29028
  42
-0.026872131
  0
VERTEX
  5
f4
  8
Layer_2
  10
89.443665
  20
175.65894
  0
VERTEX
  5
f5
  8
Layer_2
  10
89.443665
  20
171.10962
  0
VERTEX
  5
f6
  8
Layer_2
  10
90.614838
  20
171.10962
  0
VERTEX
  5
f7
  8
Layer_2
  10
90.614838
  20
176.06665
  42
0.1251585
  0
VERTEX
  5
f8
  8
Layer_2
  10
90.301956
  20
177.56177
  42
0.23712645
  0
VERTEX
  5
f9
  8
Layer_2
  10
88.956024
  20
178.45728
  42
0.28656446
  0
VERTEX
  5
fa
  8
Layer_2
  10
86.536636
  20
177.52612
  0
VERTEX
  5
fb
  8
Layer_2
  10
86.322891
  20
177.22974
  0
VERTEX
  5
fc
  8
Layer_2
  10
86.203568
  20
177.51196
  42
0.21589183
  0
VERTEX
  5
fd
  8
Layer_2
  10
85.062927
  20
178.41089
  42
0.19480263
  0
VERTEX
  5
fe
  8
Layer_2
  10
83.123657
  20
178.17114
  42
0.12284398
  0
VERTEX
  5
ff
  8
Layer_2
  10
82.253616
  20
177.31812
  0
VERTEX
  5
100
  8
Layer_2
  10
82.253616
  20
178.3313
  0
VERTEX
  5
101
  8
Layer_2
  10
81.200363
  20
178.3313
  0
VERTEX
  5
102
  8
Layer_2
  10
81.200363
  20
171.10962
  0
VERTEX
  5
103
  8
Layer_2
  10
82.378113
  20
171.10962
  0
SEQEND
  0
POLYLINE
  5
105
  8
Layer_2
  62
1
  70
1
  66
1
  10
0
  20
0
  30
0
  0
VERTEX
  5
105
  8
Layer_2
  10
53.449764
  20
168.1853
  42
0.19569132
  0
VERTEX
  5
106
  8
Layer_2
  10
55.576477
  20
169.06909
  42
0.16570893
  0
VERTEX
  5
107
  8
Layer_2
  10
56.251083
  20
170.64819
  42
0.033711641
  0
VERTEX
  5
108
  8
Layer_2
  10
56.333767
  20
172.08862
  0
VERTEX
  5
109
  8
Layer_2
  10
56.333767
  20
178.3313
  0
VERTEX
  5
10a
  8
Layer_2
  10
55.247627
  20
178.3313
  0
VERTEX
  5
10b
  8
Layer_2
  10
55.247627
  20
177.46069
  0
VERTEX
  5
10c
  8
Layer_2
  10
55.041393
  20
177.70288
  42
0.25281274
  0
VERTEX
  5
10d
  8
Layer_2
  10
52.773277
  20
178.4646
  0
VERTEX
  5
10e
  8
Layer_2
  10
52.407757
  20
178.38875
  0
VERTEX
  5
10f
  8
Layer_2
  10
52.060183
  20
178.26408
  0
VERTEX
  5
110
  8
Layer_2
  10
51.734455
  20
178.09376
  0
VERTEX
  5
111
  8
Layer_2
  10
51.434472
  20
177.88097
  0
VERTEX
  5
112
  8
Layer_2
  10
51.164133
  20
177.62889
  0
VERTEX
  5
113
  8
Layer_2
  10
50.92734
  20
177.3407
  0
VERTEX
  5
114
  8
Layer_2
  10
50.727992
  20
177.01958
  0
VERTEX
  5
115
  8
Layer_2
  10
50.569989
  20
176.6687
  42
0.18679361
  0
VERTEX
  5
116
  8
Layer_2
  10
50.516903
  20
173.05005
  42
0.15153893
  0
VERTEX
  5
117
  8
Layer_2
  10
51.674919
  20
171.52954
  42
0.24871594
  0
VERTEX
  5
118
  8
Layer_2
  10
54.269535
  20
171.34595
  42
0.10858939
  0
VERTEX
  5
119
  8
Layer_2
  10
55.136288
  20
172.05493
  42
-0.04839699
  0
VERTEX
  5
11a
  8
Layer_2
  10
55.051258
  20
170.48413
  0
VERTEX
  5
11b
  8
Layer_2
  10
54.969624
  20
170.22444
  0
VERTEX
  5
11c
  8
Layer_2
  10
54.850687
  20
169.98686
  0
VERTEX
  5
11d
  8
Layer_2
  10
54.698352
  20
169.77475
  0
VERTEX
  5
11e
  8
Layer_2
  10
54.516523
  20
169.59146
  0
VERTEX
  5
11f
  8
Layer_2
  10
54.309106
  20
169.44035
  0
VERTEX
  5
120
  8
Layer_2
  10
54.080006
  20
169.32477
  0
VERTEX
  5
121
  8
Layer_2
  10
53.833128
  20
169.24808
  0
VERTEX
  5
122
  8
Layer_2
  10
53.572378
  20
169.21362
  42
-0.13811449
  0
VERTEX
  5
123
  8
Layer_2
  10
52.228794
  20
169.38354
  42
-0.2763195
  0
VERTEX
  5
124
  8
Layer_2
  10
51.590359
  20
170.33472
  0
VERTEX
  5
125
  8
Layer_2
  10
50.445496
  20
170.51147
  42
0.17559176
  0
VERTEX
  5
126
  8
Layer_2
  10
50.851391
  20
169.08765
  42
0.17192495
  0
VERTEX
  5
127
  8
Layer_2
  10
52.328392
  20
168.2605
  42
0.061615935
  0
SEQEND
  0
POLYLINE
  5
129
  8
Layer_2
  62
1
  70
1
  66
1
  10
0
  20
0
  30
0
  0
VERTEX
  5
129
  8
Layer_2
  10
63
  20
174.89038
  0
VERTEX
  5
12a
  8
Layer_2
  10
63.012215
  20
175.27026
  42
-0.079447415
  0
VERTEX
  5
12b
  8
Layer_2
  10
63.272945
  20
176.52075
  0
VERTEX
  5
12c
  8
Layer_2
  10
63.387944
  20
176.72425
  0
VERTEX
  5
12d
  8
Layer_2
  10
63.533705
  20
176.8971
  0
VERTEX
  5
12e
  8
Layer_2
  10
63.704968
  20
177.03702
  0
VERTEX
  5
12f
  8
Layer_2
  10
63.896477
  20
177.14176
  0
VERTEX
  5
130
  8
Layer_2
  10
64.102973
  20
177.20903
  0
VERTEX
  5
131
  8
Layer_2
  10
64.319199
  20
177.23656
  0
VERTEX
  5
132
  8
Layer_2
  10
64.539897
  20
177.22209
  0
VERTEX
  5
133
  8
Layer_2
  10
64.75981
  20
177.16333
  42
-0.063853065
  0
VERTEX
  5
134
  8
Layer_2
  10
65.191544
  20
176.96411
  0
VERTEX
  5
135
  8
Layer_2
  10
65.597435
  20
178.09985
  42
0.14483852
  0
VERTEX
  5
136
  8
Layer_2
  10
64.386803
  20
178.49438
  42
0.26609736
  0
VERTEX
  5
137
  8
Layer_2
  10
63.177578
  20
177.73901
  42
0.024654942
  0
VERTEX
  5
138
  8
Layer_2
  10
62.882084
  20
177.23608
  0
VERTEX
  5
139
  8
Layer_2
  10
62.882084
  20
178.3313
  0
VERTEX
  5
13a
  8
Layer_2
  10
61.82225
  20
178.3313
  0
VERTEX
  5
13b
  8
Layer_2
  10
61.82225
  20
171.10962
  0
VERTEX
  5
13c
  8
Layer_2
  10
63
  20
171.10962
  0
SEQEND
  0
POLYLINE
  5
13e
  8
Layer_2
  62
1
  70
1
  66
1
  10
0
  20
0
  30
0
  0
VERTEX
  5
13e
  8
Layer_2
  10
69.562881
  20
170.97437
  42
0.19318341
  0
VERTEX
  5
13f
  8
Layer_2
  10
71.613014
  20
172.08032
  42
0.14564646
  0
VERTEX
  5
140
  8
Layer_2
  10
72.312057
  20
173.8606
  42
0.10952367
  0
VERTEX
  5
141
  8
Layer_2
  10
72.141052
  20
176.35669
  0
VERTEX
  5
142
  8
Layer_2
  10
71.962214
  20
176.79013
  0
VERTEX
  5
143
  8
Layer_2
  10
71.727465
  20
177.18467
  0
VERTEX
  5
144
  8
Layer_2
  10
71.44256
  20
177.53575
  0
VERTEX
  5
145
  8
Layer_2
  10
71.113252
  20
177.83878
  0
VERTEX
  5
146
  8
Layer_2
  10
70.745293
  20
178.08922
  0
VERTEX
  5
147
  8
Layer_2
  10
70.344437
  20
178.28249
  0
VERTEX
  5
148
  8
Layer_2
  10
69.916437
  20
178.41402
  0
VERTEX
  5
149
  8
Layer_2
  10
69.467044
  20
178.47925
  42
0.21367766
  0
VERTEX
  5
14a
  8
Layer_2
  10
66.932091
  20
177.69214
  42
0.15104506
  0
VERTEX
  5
14b
  8
Layer_2
  10
66.009903
  20
176.07837
  42
0.12815184
  0
VERTEX
  5
14c
  8
Layer_2
  10
66.083664
  20
173.10522
  0
VERTEX
  5
14d
  8
Layer_2
  10
66.256901
  20
172.66513
  0
VERTEX
  5
14e
  8
Layer_2
  10
66.488395
  20
172.2645
  0
VERTEX
  5
14f
  8
Layer_2
  10
66.772077
  20
171.9082
  0
VERTEX
  5
150
  8
Layer_2
  10
67.101879
  20
171.60109
  0
VERTEX
  5
151
  8
Layer_2
  10
67.471736
  20
171.34803
  0
VERTEX
  5
152
  8
Layer_2
  10
67.875579
  20
171.15386
  0
VERTEX
  5
153
  8
Layer_2
  10
68.307342
  20
171.02346
  0
VERTEX
  5
154
  8
Layer_2
  10
68.760959
  20
170.96167
  42
0.05245156
  0
SEQEND
  0
POLYLINE
  5
156
  8
Layer_2
  62
1
  70
1
  66
1
  10
0
  20
0
  30
0
  0
VERTEX
  5
156
  8
Layer_2
  10
39.192764
  20
178.3313
  0
VERTEX
  5
157
  8
Layer_2
  10
37.982601
  20
178.3313
  42
0.0031092177
  0
VERTEX
  5
158
  8
Layer_2
  10
36.305943
  20
173.53784
  42
0.014972425
  0
VERTEX
  5
159
  8
Layer_2
  10
36.00058
  20
172.55103
  0
VERTEX
  5
15a
  8
Layer_2
  10
35.787773
  20
173.29224
  0
VERTEX
  5
15b
  8
Layer_2
  10
35.555695
  20
174.00659
  0
VERTEX
  5
15c
  8
Layer_2
  10
34.063663
  20
178.3313
  0
VERTEX
  5
15d
  8
Layer_2
  10
32.821083
  20
178.3313
  0
VERTEX
  5
15e
  8
Layer_2
  10
35.464088
  20
171.10962
  0
VERTEX
  5
15f
  8
Layer_2
  10
36.562912
  20
171.10962
  0
SEQEND
  0
POLYLINE
  5
161
  8
Layer_2
  62
1
  70
1
  66
1
  10
0
  20
0
  30
0
  0
VERTEX
  5
161
  8
Layer_2
  10
41.417191
  20
178.3313
  0
VERTEX
  5
162
  8
Layer_2
  10
40.239914
  20
178.3313
  0
VERTEX
  5
163
  8
Layer_2
  10
40.239914
  20
171.10962
  0
VERTEX
  5
164
  8
Layer_2
  10
41.417191
  20
171.10962
  0
SEQEND
  0
POLYLINE
  5
166
  8
Layer_2
  62
1
  70
1
  66
1
  10
0
  20
0
  30
0
  0
VERTEX
  5
166
  8
Layer_2
  10
31.741522
  20
178.3313
  0
VERTEX
  5
167
  8
Layer_2
  10
30.563774
  20
178.3313
  0
VERTEX
  5
168
  8
Layer_2
  10
30.563774
  20
171.10962
  0
VERTEX
  5
169
  8
Layer_2
  10
31.741522
  20
171.10962
  0
SEQEND
  0
POLYLINE
  5
16b
  8
Layer_2
  62
1
  70
1
  66
1
  10
0
  20
0
  30
0
  0
VERTEX
  5
16b
  8
Layer_2
  10
53.124204
  20
172.13306
  0
VERTEX
  5
16c
  8
Layer_2
  10
52.872173
  20
172.18081
  0
VERTEX
  5
16d
  8
Layer_2
  10
52.632963
  20
172.26414
  0
VERTEX
  5
16e
  8
Layer_2
  10
52.409534
  20
172.38057
  0
VERTEX
  5
16f
  8
Layer_2
  10
52.204843
  20
172.52766
  0
VERTEX
  5
170
  8
Layer_2
  10
52.02185
  20
172.70293
  0
VERTEX
  5
171
  8
Layer_2
  10
51.863513
  20
172.90394
  0
VERTEX
  5
172
  8
Layer_2
  10
51.73279
  20
173.12821
  0
VERTEX
  5
173
  8
Layer_2
  10
51.63264
  20
173.37329
  42
-0.15274442
  0
VERTEX
  5
174
  8
Layer_2
  10
51.634987
  20
176.23071
  0
VERTEX
  5
175
  8
Layer_2
  10
51.759526
  20
176.52026
  0
VERTEX
  5
176
  8
Layer_2
  10
51.925597
  20
176.77832
  0
VERTEX
  5
177
  8
Layer_2
  10
52.127958
  20
177.00143
  0
VERTEX
  5
178
  8
Layer_2
  10
52.361362
  20
177.18608
  0
VERTEX
  5
179
  8
Layer_2
  10
52.620564
  20
177.32879
  0
VERTEX
  5
17a
  8
Layer_2
  10
52.900318
  20
177.42609
  0
VERTEX
  5
17b
  8
Layer_2
  10
53.195379
  20
177.47447
  0
VERTEX
  5
17c
  8
Layer_2
  10
53.500501
  20
177.47046
  0
VERTEX
  5
17d
  8
Layer_2
  10
53.783781
  20
177.40511
  0
VERTEX
  5
17e
  8
Layer_2
  10
54.049943
  20
177.29836
  0
VERTEX
  5
17f
  8
Layer_2
  10
54.295516
  20
177.15347
  0
VERTEX
  5
180
  8
Layer_2
  10
54.51703
  20
176.97373
  0
VERTEX
  5
181
  8
Layer_2
  10
54.711013
  20
176.76238
  0
VERTEX
  5
182
  8
Layer_2
  10
54.873994
  20
176.52271
  0
VERTEX
  5
183
  8
Layer_2
  10
55.002503
  20
176.25797
  0
VERTEX
  5
184
  8
Layer_2
  10
55.093068
  20
175.97144
  42
-0.13877605
  0
VERTEX
  5
185
  8
Layer_2
  10
55.019783
  20
173.36304
  0
VERTEX
  5
186
  8
Layer_2
  10
54.891973
  20
173.07136
  0
VERTEX
  5
187
  8
Layer_2
  10
54.72217
  20
172.81208
  0
VERTEX
  5
188
  8
Layer_2
  10
54.51578
  20
172.58869
  0
VERTEX
  5
189
  8
Layer_2
  10
54.278208
  20
172.40472
  0
VERTEX
  5
18a
  8
Layer_2
  10
54.014858
  20
172.26366
  0
VERTEX
  5
18b
  8
Layer_2
  10
53.731138
  20
172.16903
  0
VERTEX
  5
18c
  8
Layer_2
  10
53.432451
  20
172.12432
  0
SEQEND
  0
POLYLINE
  5
18e
  8
Layer_2
  62
1
  70
1
  66
1
  10
0
  20
0
  30
0
  0
VERTEX
  5
18e
  8
Layer_2
  10
68.900955
  20
171.96362
  42
-0.085142687
  0
VERTEX
  5
18f
  8
Layer_2
  10
68.309029
  20
172.12524
  42
-0.22139303
  0
VERTEX
  5
190
  8
Layer_2
  10
67.214897
  20
173.50757
  42
-0.14230006
  0
VERTEX
  5
191
  8
Layer_2
  10
67.296646
  20
176.18091
  0
VERTEX
  5
192
  8
Layer_2
  10
67.45145
  20
176.51405
  0
VERTEX
  5
193
  8
Layer_2
  10
67.656696
  20
176.80518
  0
VERTEX
  5
194
  8
Layer_2
  10
67.905001
  20
177.05016
  0
VERTEX
  5
195
  8
Layer_2
  10
68.18899
  20
177.24484
  0
VERTEX
  5
196
  8
Layer_2
  10
68.501284
  20
177.38508
  0
VERTEX
  5
197
  8
Layer_2
  10
68.834506
  20
177.46675
  0
VERTEX
  5
198
  8
Layer_2
  10
69.181278
  20
177.48568
  0
VERTEX
  5
199
  8
Layer_2
  10
69.534223
  20
177.43774
  0
VERTEX
  5
19a
  8
Layer_2
  10
69.797471
  20
177.3535
  0
VERTEX
  5
19b
  8
Layer_2
  10
70.04365
  20
177.23431
  0
VERTEX
  5
19c
  8
Layer_2
  10
70.270071
  20
177.08291
  0
VERTEX
  5
19d
  8
Layer_2
  10
70.474046
  20
176.90203
  0
VERTEX
  5
19e
  8
Layer_2
  10
70.652884
  20
176.69439
  0
VERTEX
  5
19f
  8
Layer_2
  10
70.803897
  20
176.46272
  0
VERTEX
  5
1a0
  8
Layer_2
  10
70.924397
  20
176.20976
  0
VERTEX
  5
1a1
  8
Layer_2
  10
71.011693
  20
175.93823
  42
-0.14163228
  0
VERTEX
  5
1a2
  8
Layer_2
  10
70.930893
  20
173.2688
  0
VERTEX
  5
1a3
  8
Layer_2
  10
70.793054
  20
172.95794
  0
VERTEX
  5
1a4
  8
Layer_2
  10
70.610534
  20
172.68185
  0
VERTEX
  5
1a5
  8
Layer_2
  10
70.389113
  20
172.44424
  0
VERTEX
  5
1a6
  8
Layer_2
  10
70.134576
  20
172.24883
  0
VERTEX
  5
1a7
  8
Layer_2
  10
69.852708
  20
172.09935
  0
VERTEX
  5
1a8
  8
Layer_2
  10
69.549292
  20
171.99951
  0
VERTEX
  5
1a9
  8
Layer_2
  10
69.230113
  20
171.95303
  0
VERTEX
  5
1aa
  8
Layer_2
  10
68.900955
  20
171.96362
  0
SEQEND
  0
POLYLINE
  5
1ac
  8
Layer_2
  62
1
  70
1
  66
1
  10
0
  20
0
  30
0
  0
VERTEX
  5
1ac
  8
Layer_2
  10
76.352669
  20
171.96362
  42
-0.05675082
  0
VERTEX
  5
1ad
  8
Layer_2
  10
75.948654
  20
172.05005
  42
-0.25165334
  0
VERTEX
  5
1ae
  8
Layer_2
  10
74.666611
  20
173.50757
  42
-0.14235206
  0
VERTEX
  5
1af
  8
Layer_2
  10
74.748352
  20
176.18091
  0
VERTEX
  5
1b0
  8
Layer_2
  10
74.903162
  20
176.51405
  0
VERTEX
  5
1b1
  8
Layer_2
  10
75.108407
  20
176.80518
  0
VERTEX
  5
1b2
  8
Layer_2
  10
75.356713
  20
177.05016
  0
VERTEX
  5
1b3
  8
Layer_2
  10
75.640702
  20
177.24484
  0
VERTEX
  5
1b4
  8
Layer_2
  10
75.952996
  20
177.38509
  0
VERTEX
  5
1b5
  8
Layer_2
  10
76.286218
  20
177.46675
  0
VERTEX
  5
1b6
  8
Layer_2
  10
76.63299
  20
177.48568
  0
VERTEX
  5
1b7
  8
Layer_2
  10
76.985935
  20
177.43774
  0
VERTEX
  5
1b8
  8
Layer_2
  10
77.249164
  20
177.35347
  0
VERTEX
  5
1b9
  8
Layer_2
  10
77.495328
  20
177.23427
  0
VERTEX
  5
1ba
  8
Layer_2
  10
77.721738
  20
177.08286
  0
VERTEX
  5
1bb
  8
Layer_2
  10
77.925707
  20
176.90198
  0
VERTEX
  5
1bc
  8
Layer_2
  10
78.104547
  20
176.69434
  0
VERTEX
  5
1bd
  8
Layer_2
  10
78.255568
  20
176.46269
  0
VERTEX
  5
1be
  8
Layer_2
  10
78.376083
  20
176.20974
  0
VERTEX
  5
1bf
  8
Layer_2
  10
78.463405
  20
175.93823
  42
-0.14179974
  0
VERTEX
  5
1c0
  8
Layer_2
  10
78.382133
  20
173.2688
  0
VERTEX
  5
1c1
  8
Layer_2
  10
78.244354
  20
172.95797
  0
VERTEX
  5
1c2
  8
Layer_2
  10
78.061894
  20
172.6819
  0
VERTEX
  5
1c3
  8
Layer_2
  10
77.840536
  20
172.4443
  0
VERTEX
  5
1c4
  8
Layer_2
  10
77.586063
  20
172.2489
  0
VERTEX
  5
1c5
  8
Layer_2
  10
77.304256
  20
172.09941
  0
VERTEX
  5
1c6
  8
Layer_2
  10
77.000899
  20
171.99956
  0
VERTEX
  5
1c7
  8
Layer_2
  10
76.681775
  20
171.95305
  0
VERTEX
  5
1c8
  8
Layer_2
  10
76.352666
  20
171.96362
  0
SEQEND
  0
POLYLINE
  5
1ca
  8
Layer_2
  62
1
  70
1
  66
1
  10
0
  20
0
  30
0
  0
VERTEX
  5
1ca
  8
Layer_2
  10
235.90186
  20
176.48584
  0
VERTEX
  5
1cb
  8
Layer_2
  10
237.53369
  20
178.07666
  0
VERTEX
  5
1cc
  8
Layer_2
  10
241.08301
  20
173.03125
  0
VERTEX
  5
1cd
  8
Layer_2
  10
242.82373
  20
173.03125
  0
VERTEX
  5
1ce
  8
Layer_2
  10
238.4585
  20
178.96094
  0
VERTEX
  5
1cf
  8
Layer_2
  10
242.64014
  20
183
  0
VERTEX
  5
1d0
  8
Layer_2
  10
240.85205
  20
183
  0
VERTEX
  5
1d1
  8
Layer_2
  10
235.90186
  20
178.05615
  0
VERTEX
  5
1d2
  8
Layer_2
  10
235.90186
  20
183
  0
VERTEX
  5
1d3
  8
Layer_2
  10
234.58252
  20
183
  0
VERTEX
  5
1d4
  8
Layer_2
  10
234.58252
  20
173.03125
  0
VERTEX
  5
1d5
  8
Layer_2
  10
235.90186
  20
173.03125
  0
SEQEND
  0
POLYLINE
  5
1d7
  8
Layer_2
  62
1
  70
1
  66
1
  10
0
  20
0
  30
0
  0
VERTEX
  5
1d7
  8
Layer_2
  10
245
  20
183
  0
VERTEX
  5
1d8
  8
Layer_2
  10
243.77588
  20
183
  0
VERTEX
  5
1d9
  8
Layer_2
  10
243.77588
  20
181.59229
  0
VERTEX
  5
1da
  8
Layer_2
  10
245
  20
181.59229
  0
SEQEND
  0
POLYLINE
  5
1dc
  8
Layer_2
  62
1
  70
1
  66
1
  10
0
  20
0
  30
0
  0
VERTEX
  5
1dc
  8
Layer_2
  10
258.91895
  20
176.98193
  0
VERTEX
  5
1dd
  8
Layer_2
  10
258.93164
  20
177.38428
  42
-0.12426509
  0
VERTEX
  5
1de
  8
Layer_2
  10
259.24219
  20
178.54346
  42
-0.38470229
  0
VERTEX
  5
1df
  8
Layer_2
  10
261.73584
  20
179.12646
  42
-0.20939639
  0
VERTEX
  5
1e0
  8
Layer_2
  10
262.29688
  20
178.22559
  42
-0.048862457
  0
VERTEX
  5
1e1
  8
Layer_2
  10
262.35303
  20
177.60742
  0
VERTEX
  5
1e2
  8
Layer_2
  10
262.35303
  20
173.03125
  0
VERTEX
  5
1e3
  8
Layer_2
  10
263.57666
  20
173.03125
  0
VERTEX
  5
1e4
  8
Layer_2
  10
263.57666
  20
177.60742
  42
0.10272545
  0
VERTEX
  5
1e5
  8
Layer_2
  10
263.32178
  20
179.22607
  42
0.2016066
  0
VERTEX
  5
1e6
  8
Layer_2
  10
262.1665
  20
180.23828
  42
0.18982528
  0
VERTEX
  5
1e7
  8
Layer_2
  10
259.88818
  20
180.16748
  42
0.1085883
  0
VERTEX
  5
1e8
  8
Layer_2
  10
258.91895
  20
179.42334
  0
VERTEX
  5
1e9
  8
Layer_2
  10
258.91895
  20
183
  0
VERTEX
  5
1ea
  8
Layer_2
  10
257.69482
  20
183
  0
VERTEX
  5
1eb
  8
Layer_2
  10
257.69482
  20
173.03125
  0
VERTEX
  5
1ec
  8
Layer_2
  10
258.91895
  20
173.03125
  0
SEQEND
  0
POLYLINE
  5
1ee
  8
Layer_2
  62
1
  70
1
  66
1
  10
0
  20
0
  30
0
  0
VERTEX
  5
1ee
  8
Layer_2
  10
248.99805
  20
172.94287
  42
0.034691817
  0
VERTEX
  5
1ef
  8
Layer_2
  10
249.71191
  20
173.04492
  0
VERTEX
  5
1f0
  8
Layer_2
  10
249.53516
  20
174.12598
  0
VERTEX
  5
1f1
  8
Layer_2
  10
249.37695
  20
174.10547
  42
-0.15743735
  0
VERTEX
  5
1f2
  8
Layer_2
  10
248.58008
  20
174.16699
  42
-0.27278328
  0
VERTEX
  5
1f3
  8
Layer_2
  10
248.3208
  20
174.64795
  42
-0.023570617
  0
VERTEX
  5
1f4
  8
Layer_2
  10
248.30469
  20
175.07813
  0
VERTEX
  5
1f5
  8
Layer_2
  10
248.30469
  20
179.30078
  0
VERTEX
  5
1f6
  8
Layer_2
  10
249.53516
  20
179.30078
  0
VERTEX
  5
1f7
  8
Layer_2
  10
249.53516
  20
180.25293
  0
VERTEX
  5
1f8
  8
Layer_2
  10
248.30469
  20
180.25293
  0
VERTEX
  5
1f9
  8
Layer_2
  10
248.30469
  20
182.77539
  0
VERTEX
  5
1fa
  8
Layer_2
  10
247.0874
  20
182.04102
  0
VERTEX
  5
1fb
  8
Layer_2
  10
247.0874
  20
180.25293
  0
VERTEX
  5
1fc
  8
Layer_2
  10
246.18994
  20
180.25293
  0
VERTEX
  5
1fd
  8
Layer_2
  10
246.18994
  20
179.30078
  0
VERTEX
  5
1fe
  8
Layer_2
  10
247.0874
  20
179.30078
  0
VERTEX
  5
1ff
  8
Layer_2
  10
247.0874
  20
175.146
  42
0.064845783
  0
VERTEX
  5
200
  8
Layer_2
  10
247.20166
  20
173.79883
  42
0.27528188
  0
VERTEX
  5
201
  8
Layer_2
  10
248.1958
  20
172.98877
  42
0.061468178
  0
SEQEND
  0
POLYLINE
  5
203
  8
Layer_2
  62
1
  70
1
  66
1
  10
0
  20
0
  30
0
  0
VERTEX
  5
203
  8
Layer_2
  10
253.93213
  20
172.87891
  42
0.29085788
  0
VERTEX
  5
204
  8
Layer_2
  10
256.41357
  20
174.6626
  42
0.057074895
  0
VERTEX
  5
205
  8
Layer_2
  10
256.64795
  20
175.52002
  0
VERTEX
  5
206
  8
Layer_2
  10
255.44434
  20
175.67627
  0
VERTEX
  5
207
  8
Layer_2
  10
255.40625
  20
175.45459
  42
-0.2202039
  0
VERTEX
  5
208
  8
Layer_2
  10
254.57617
  20
174.12305
  42
-0.3955983
  0
VERTEX
  5
209
  8
Layer_2
  10
252.04297
  20
174.71143
  42
-0.12833707
  0
VERTEX
  5
20a
  8
Layer_2
  10
251.62451
  20
176.29736
  42
-0.099802611
  0
VERTEX
  5
20b
  8
Layer_2
  10
251.8418
  20
178.14063
  42
-0.36500383
  0
VERTEX
  5
20c
  8
Layer_2
  10
253.9917
  20
179.38672
  42
-0.23674245
  0
VERTEX
  5
20d
  8
Layer_2
  10
255.10693
  20
178.58496
  42
-0.067809029
  0
VERTEX
  5
20e
  8
Layer_2
  10
255.34229
  20
177.94775
  0
VERTEX
  5
20f
  8
Layer_2
  10
256.53223
  20
178.13135
  42
0.26480604
  0
VERTEX
  5
210
  8
Layer_2
  10
254.95215
  20
180.18359
  42
0.25524283
  0
VERTEX
  5
211
  8
Layer_2
  10
251.55469
  20
179.73047
  42
0.12326837
  0
VERTEX
  5
212
  8
Layer_2
  10
250.74561
  20
178.66162
  42
0.1671788
  0
VERTEX
  5
213
  8
Layer_2
  10
250.5835
  20
175.01611
  42
0.31444717
  0
VERTEX
  5
214
  8
Layer_2
  10
253.28076
  20
172.8833
  42
0.03946621
  0
SEQEND
  0
POLYLINE
  5
216
  8
Layer_2
  62
1
  70
1
  66
1
  10
0
  20
0
  30
0
  0
VERTEX
  5
216
  8
Layer_2
  10
268.78027
  20
172.87793
  42
0.2234559
  0
VERTEX
  5
217
  8
Layer_2
  10
271.0752
  20
174.00879
  42
0.098682212
  0
VERTEX
  5
218
  8
Layer_2
  10
271.64844
  20
175.20068
  0
VERTEX
  5
219
  8
Layer_2
  10
270.3833
  20
175.35693
  0
VERTEX
  5
21a
  8
Layer_2
  10
270.23193
  20
174.99561
  42
-0.16937583
  0
VERTEX
  5
21b
  8
Layer_2
  10
269.37842
  20
174.07324
  42
-0.35415543
  0
VERTEX
  5
21c
  8
Layer_2
  10
266.82715
  20
174.67383
  42
-0.14886251
  0
VERTEX
  5
21d
  8
Layer_2
  10
266.29688
  20
176.3291
  0
VERTEX
  5
21e
  8
Layer_2
  10
271.68213
  20
176.3291
  42
0.11484487
  0
VERTEX
  5
21f
  8
Layer_2
  10
271.33057
  20
178.57764
  42
0.30649696
  0
VERTEX
  5
220
  8
Layer_2
  10
268.40479
  20
180.41602
  42
0.36820083
  0
VERTEX
  5
221
  8
Layer_2
  10
265.16406
  20
177.83301
  42
0.13042755
  0
VERTEX
  5
222
  8
Layer_2
  10
265.26416
  20
175.01611
  42
0.28491691
  0
VERTEX
  5
223
  8
Layer_2
  10
267.72168
  20
172.9292
  42
0.05685298
  0
SEQEND
  0
POLYLINE
  5
225
  8
Layer_2
  62
1
  70
1
  66
1
  10
0
  20
0
  30
0
  0
VERTEX
  5
225
  8
Layer_2
  10
274.40918
  20
176.9751
  0
VERTEX
  5
226
  8
Layer_2
  10
274.41797
  20
177.30811
  42
-0.12139807
  0
VERTEX
  5
227
  8
Layer_2
  10
274.72852
  20
178.55469
  42
-0.28218956
  0
VERTEX
  5
228
  8
Layer_2
  10
276.56348
  20
179.34131
  42
-0.38349707
  0
VERTEX
  5
229
  8
Layer_2
  10
277.79346
  20
178.07764
  42
-0.031646729
  0
VERTEX
  5
22a
  8
Layer_2
  10
277.8291
  20
177.42383
  0
VERTEX
  5
22b
  8
Layer_2
  10
277.8291
  20
173.03125
  0
VERTEX
  5
22c
  8
Layer_2
  10
279.05322
  20
173.03125
  42
0.0023863228
  0
VERTEX
  5
22d
  8
Layer_2
  10
279.05225
  20
177.67627
  42
0.10208384
  0
VERTEX
  5
22e
  8
Layer_2
  10
278.83545
  20
179.14941
  42
0.21201789
  0
VERTEX
  5
22f
  8
Layer_2
  10
277.78516
  20
180.18115
  42
0.24751117
  0
VERTEX
  5
230
  8
Layer_2
  10
274.98291
  20
179.95117
  42
0.092235347
  0
VERTEX
  5
231
  8
Layer_2
  10
274.28662
  20
179.22607
  0
VERTEX
  5
232
  8
Layer_2
  10
274.28662
  20
180.25293
  0
VERTEX
  5
233
  8
Layer_2
  10
273.18506
  20
180.25293
  0
VERTEX
  5
234
  8
Layer_2
  10
273.18506
  20
173.03125
  0
VERTEX
  5
235
  8
Layer_2
  10
274.40918
  20
173.03125
  0
SEQEND
  0
POLYLINE
  5
237
  8
Layer_2
  62
1
  70
1
  66
1
  10
0
  20
0
  30
0
  0
VERTEX
  5
237
  8
Layer_2
  10
245
  20
180.25293
  0
VERTEX
  5
238
  8
Layer_2
  10
243.77588
  20
180.25293
  0
VERTEX
  5
239
  8
Layer_2
  10
243.77588
  20
173.03125
  0
VERTEX
  5
23a
  8
Layer_2
  10
245
  20
173.03125
  0
SEQEND
  0
POLYLINE
  5
23c
  8
Layer_2
  62
1
  70
1
  66
1
  10
0
  20
0
  30
0
  0
VERTEX
  5
23c
  8
Layer_2
  10
266.36475
  20
177.33545
  0
VERTEX
  5
23d
  8
Layer_2
  10
266.38818
  20
177.56592
  42
-0.20208924
  0
VERTEX
  5
23e
  8
Layer_2
  10
267.12997
  20
178.95912
  42
-0.20208844
  0
VERTEX
  5
23f
  8
Layer_2
  10
268.646
  20
179.39844
  42
-0.34776416
  0
VERTEX
  5
240
  8
Layer_2
  10
270.3374
  20
177.7627
  42
-0.026974398
  0
VERTEX
  5
241
  8
Layer_2
  10
270.39697
  20
177.33545
  0
SEQEND
  0
POLYLINE
  5
243
  8
Layer_2
  62
1
  70
1
  66
1
  10
0
  20
0
  30
0
  0
VERTEX
  5
243
  8
Layer_2
  10
22.949219
  20
21.815918
  0
VERTEX
  5
244
  8
Layer_2
  10
24.479004
  20
21.815918
  42
-0.11623327
  0
VERTEX
  5
245
  8
Layer_2
  10
25.51709
  20
21.664551
  42
-0.13515207
  0
VERTEX
  5
246
  8
Layer_2
  10
26.484863
  20
20.836914
  42
-0.022180437
  0
VERTEX
  5
247
  8
Layer_2
  10
27.437012
  20
19.463379
  0
VERTEX
  5
248
  8
Layer_2
  10
28.756348
  20
17.38916
  0
VERTEX
  5
249
  8
Layer_2
  10
30.415527
  20
17.38916
  0
VERTEX
  5
24a
  8
Layer_2
  10
28.681641
  20
20.102539
  42
0.081140382
  0
VERTEX
  5
24b
  8
Layer_2
  10
27.435059
  20
21.55127
  42
0.043781678
  0
VERTEX
  5
24c
  8
Layer_2
  10
26.791016
  20
21.924805
  0
VERTEX
  5
24d
  8
Layer_2
  10
27.138184
  20
21.982422
  42
0.12798278
  0
VERTEX
  5
24e
  8
Layer_2
  10
28.729004
  20
22.675781
  42
0.26062987
  0
VERTEX
  5
24f
  8
Layer_2
  10
29.573242
  20
25.040039
  42
0.22426098
  0
VERTEX
  5
250
  8
Layer_2
  10
28.405762
  20
26.929199
  42
0.10864044
  0
VERTEX
  5
251
  8
Layer_2
  10
26.959473
  20
27.319824
  42
0.022136146
  0
VERTEX
  5
252
  8
Layer_2
  10
26.049805
  20
27.35791
  0
VERTEX
  5
253
  8
Layer_2
  10
21.629883
  20
27.35791
  0
VERTEX
  5
254
  8
Layer_2
  10
21.629883
  20
17.38916
  0
VERTEX
  5
255
  8
Layer_2
  10
22.949219
  20
17.38916
  0
SEQEND
  0
POLYLINE
  5
257
  8
Layer_2
  62
1
  70
1
  66
1
  10
0
  20
0
  30
0
  0
VERTEX
  5
257
  8
Layer_2
  10
22.949219
  20
22.958496
  0
VERTEX
  5
258
  8
Layer_2
  10
22.949219
  20
26.256348
  0
VERTEX
  5
259
  8
Layer_2
  10
26.104492
  20
26.256348
  42
-0.11704227
  0
VERTEX
  5
25a
  8
Layer_2
  10
27.432129
  20
26
  42
-0.36448571
  0
VERTEX
  5
25b
  8
Layer_2
  10
28.17334
  20
24.172852
  42
-0.2871353
  0
VERTEX
  5
25c
  8
Layer_2
  10
26.919434
  20
23.063477
  42
-0.053857875
  0
VERTEX
  5
25d
  8
Layer_2
  10
25.784668
  20
22.958496
  0
SEQEND
  0
POLYLINE
  5
25f
  8
Layer_2
  62
1
  70
1
  66
1
  10
0
  20
0
  30
0
  0
VERTEX
  5
25f
  8
Layer_2
  10
34.904297
  20
17.253906
  42
0.18929789
  0
VERTEX
  5
260
  8
Layer_2
  10
37.035156
  20
18.359863
  42
0.14958758
  0
VERTEX
  5
261
  8
Layer_2
  10
37.761719
  20
20.140137
  42
0.11368628
  0
VERTEX
  5
262
  8
Layer_2
  10
37.583984
  20
22.63623
  42
0.3028467
  0
VERTEX
  5
263
  8
Layer_2
  10
34.804688
  20
24.758789
  42
0.20748557
  0
VERTEX
  5
264
  8
Layer_2
  10
32.169922
  20
23.97168
  42
0.15380146
  0
VERTEX
  5
265
  8
Layer_2
  10
31.211426
  20
22.35791
  42
0.13301905
  0
VERTEX
  5
266
  8
Layer_2
  10
31.288086
  20
19.384766
  42
0.3107773
  0
VERTEX
  5
267
  8
Layer_2
  10
34.070801
  20
17.241211
  42
0.050475897
  0
SEQEND
  0
POLYLINE
  5
269
  8
Layer_2
  62
1
  70
1
  66
1
  10
0
  20
0
  30
0
  0
VERTEX
  5
269
  8
Layer_2
  10
42.649414
  20
17.253906
  42
0.18933686
  0
VERTEX
  5
26a
  8
Layer_2
  10
44.779785
  20
18.359863
  42
0.15000724
  0
VERTEX
  5
26b
  8
Layer_2
  10
45.506348
  20
20.140137
  42
0.11383299
  0
VERTEX
  5
26c
  8
Layer_2
  10
45.329102
  20
22.63623
  42
0.30284185
  0
VERTEX
  5
26d
  8
Layer_2
  10
42.549805
  20
24.758789
  42
0.20739709
  0
VERTEX
  5
26e
  8
Layer_2
  10
39.914551
  20
23.97168
  42
0.15365411
  0
VERTEX
  5
26f
  8
Layer_2
  10
38.956543
  20
22.35791
  42
0.13327937
  0
VERTEX
  5
270
  8
Layer_2
  10
39.033203
  20
19.384766
  42
0.31082224
  0
VERTEX
  5
271
  8
Layer_2
  10
41.815918
  20
17.241211
  42
0.050475557
  0
SEQEND
  0
POLYLINE
  5
273
  8
Layer_2
  62
1
  70
1
  66
1
  10
0
  20
0
  30
0
  0
VERTEX
  5
273
  8
Layer_2
  10
48.224121
  20
21.135742
  0
VERTEX
  5
274
  8
Layer_2
  10
48.227051
  20
21.375
  42
-0.11594156
  0
VERTEX
  5
275
  8
Layer_2
  10
48.535156
  20
22.891602
  42
-0.3581745
  0
VERTEX
  5
276
  8
Layer_2
  10
50.597168
  20
23.61084
  42
-0.25248606
  0
VERTEX
  5
277
  8
Layer_2
  10
51.21582
  20
22.794922
  42
-0.059757979
  0
VERTEX
  5
278
  8
Layer_2
  10
51.290527
  20
22.081055
  0
VERTEX
  5
279
  8
Layer_2
  10
51.290527
  20
17.38916
  0
VERTEX
  5
27a
  8
Layer_2
  10
52.514648
  20
17.38916
  0
VERTEX
  5
27b
  8
Layer_2
  10
52.514648
  20
21.584473
  42
-0.12903637
  0
VERTEX
  5
27c
  8
Layer_2
  10
52.797852
  20
22.915039
  42
-0.36019764
  0
VERTEX
  5
27d
  8
Layer_2
  10
54.854004
  20
23.602051
  42
-0.29991501
  0
VERTEX
  5
27e
  8
Layer_2
  10
55.538086
  20
22.569824
  42
-0.027923289
  0
VERTEX
  5
27f
  8
Layer_2
  10
55.567871
  20
21.938477
  0
VERTEX
  5
280
  8
Layer_2
  10
55.567871
  20
17.38916
  0
VERTEX
  5
281
  8
Layer_2
  10
56.785156
  20
17.38916
  0
VERTEX
  5
282
  8
Layer_2
  10
56.785156
  20
22.346191
  42
0.1295038
  0
VERTEX
  5
283
  8
Layer_2
  10
56.459961
  20
23.841309
  42
0.23379772
  0
VERTEX
  5
284
  8
Layer_2
  10
55.061035
  20
24.736816
  42
0.27953541
  0
VERTEX
  5
285
  8
Layer_2
  10
52.546387
  20
23.805664
  0
VERTEX
  5
286
  8
Layer_2
  10
52.324219
  20
23.509277
  0
VERTEX
  5
287
  8
Layer_2
  10
52.200195
  20
23.791504
  42
0.21394045
  0
VERTEX
  5
288
  8
Layer_2
  10
51.014648
  20
24.69043
  42
0.1881289
  0
VERTEX
  5
289
  8
Layer_2
  10
48.999023
  20
24.450684
  42
0.12265392
  0
VERTEX
  5
28a
  8
Layer_2
  10
48.094727
  20
23.597656
  0
VERTEX
  5
28b
  8
Layer_2
  10
48.094727
  20
24.61084
  0
VERTEX
  5
28c
  8
Layer_2
  10
47
  20
24.61084
  0
VERTEX
  5
28d
  8
Layer_2
  10
47
  20
17.38916
  0
VERTEX
  5
28e
  8
Layer_2
  10
48.224121
  20
17.38916
  0
SEQEND
  0
POLYLINE
  5
290
  8
Layer_2
  62
1
  70
1
  66
1
  10
0
  20
0
  30
0
  0
VERTEX
  5
290
  8
Layer_2
  10
34.216309
  20
18.243164
  42
-0.31492662
  0
VERTEX
  5
291
  8
Layer_2
  10
32.463867
  20
19.787109
  42
-0.14765712
  0
VERTEX
  5
292
  8
Layer_2
  10
32.548828
  20
22.460449
  42
-0.37465873
  0
VERTEX
  5
293
  8
Layer_2
  10
34.874512
  20
23.717285
  42
-0.2787493
  0
VERTEX
  5
294
  8
Layer_2
  10
36.410156
  20
22.217773
  42
-0.14696693
  0
VERTEX
  5
295
  8
Layer_2
  10
36.326172
  20
19.54834
  42
-0.34834262
  0
SEQEND
  0
POLYLINE
  5
297
  8
Layer_2
  62
1
  70
1
  66
1
  10
0
  20
0
  30
0
  0
VERTEX
  5
297
  8
Layer_2
  10
41.961426
  20
18.243164
  42
-0.2543637
  0
VERTEX
  5
298
  8
Layer_2
  10
40.397949
  20
19.311035
  42
-0.12019934
  0
VERTEX
  5
299
  8
Layer_2
  10
40.057617
  20
21
  42
-0.12059038
  0
VERTEX
  5
29a
  8
Layer_2
  10
40.397949
  20
22.686523
  42
-0.39781787
  0
VERTEX
  5
29b
  8
Layer_2
  10
43.016113
  20
23.587891
  42
-0.24442605
  0
VERTEX
  5
29c
  8
Layer_2
  10
44.22168
  20
21.954102
  42
-0.13007523
  0
VERTEX
  5
29d
  8
Layer_2
  10
44.070801
  20
19.54834
  42
-0.34835494
  0
SEQEND
  0
POLYLINE
  5
29f
  8
Layer_2
  62
1
  70
1
  66
1
  10
0
  20
0
  30
0
  0
VERTEX
  5
29f
  8
Layer_2
  10
231.23096
  20
18.59433
  42
0.051026893
  0
VERTEX
  5
2a0
  8
Layer_2
  10
232.38135
  20
18.75058
  42
0.17047813
  0
VERTEX
  5
2a1
  8
Layer_2
  10
233.87305
  20
19.638763
  42
0.28678805
  0
VERTEX
  5
2a2
  8
Layer_2
  10
234.22607
  20
22.649506
  42
0.21007904
  0
VERTEX
  5
2a3
  8
Layer_2
  10
232.62305
  20
23.887787
  0
VERTEX
  5
2a4
  8
Layer_2
  10
232.95117
  20
24.074799
  42
0.3786016
  0
VERTEX
  5
2a5
  8
Layer_2
  10
233.79688
  20
27.00058
  42
0.26133557
  0
VERTEX
  5
2a6
  8
Layer_2
  10
231.74121
  20
28.477142
  42
0.040360783
  0
VERTEX
  5
2a7
  8
Layer_2
  10
230.71191
  20
28.552826
  0
VERTEX
  5
2a8
  8
Layer_2
  10
226.97217
  20
28.552826
  0
VERTEX
  5
2a9
  8
Layer_2
  10
226.97217
  20
18.584076
  0
VERTEX
  5
2aa
  8
Layer_2
  10
230.77344
  20
18.584076
  0
SEQEND
  0
POLYLINE
  5
2ac
  8
Layer_2
  62
1
  70
1
  66
1
  10
0
  20
0
  30
0
  0
VERTEX
  5
2ac
  8
Layer_2
  10
248.99658
  20
22.53476
  42
-0.096356326
  0
VERTEX
  5
2ad
  8
Layer_2
  10
249.20068
  20
23.867767
  42
-0.29553685
  0
VERTEX
  5
2ae
  8
Layer_2
  10
250.90771
  20
24.914642
  42
-0.24830323
  0
VERTEX
  5
2af
  8
Layer_2
  10
252.12598
  20
24.384369
  42
-0.1523054
  0
VERTEX
  5
2b0
  8
Layer_2
  10
252.43066
  20
23.160248
  0
VERTEX
  5
2b1
  8
Layer_2
  10
252.43066
  20
18.584076
  0
VERTEX
  5
2b2
  8
Layer_2
  10
253.65479
  20
18.584076
  0
VERTEX
  5
2b3
  8
Layer_2
  10
253.65479
  20
23.160248
  42
0.10251778
  0
VERTEX
  5
2b4
  8
Layer_2
  10
253.39941
  20
24.7789
  42
0.20164442
  0
VERTEX
  5
2b5
  8
Layer_2
  10
252.24414
  20
25.791107
  42
0.1898296
  0
VERTEX
  5
2b6
  8
Layer_2
  10
249.96582
  20
25.720306
  42
0.10852619
  0
VERTEX
  5
2b7
  8
Layer_2
  10
248.99658
  20
24.976166
  0
VERTEX
  5
2b8
  8
Layer_2
  10
248.99658
  20
28.552826
  0
VERTEX
  5
2b9
  8
Layer_2
  10
247.77295
  20
28.552826
  0
VERTEX
  5
2ba
  8
Layer_2
  10
247.77295
  20
18.584076
  0
VERTEX
  5
2bb
  8
Layer_2
  10
248.99658
  20
18.584076
  0
SEQEND
  0
POLYLINE
  5
2bd
  8
Layer_2
  62
1
  70
1
  66
1
  10
0
  20
0
  30
0
  0
VERTEX
  5
2bd
  8
Layer_2
  10
246.03906
  20
18.495697
  42
0.034662621
  0
VERTEX
  5
2be
  8
Layer_2
  10
246.75293
  20
18.597748
  0
VERTEX
  5
2bf
  8
Layer_2
  10
246.57617
  20
19.678802
  0
VERTEX
  5
2c0
  8
Layer_2
  10
246.41748
  20
19.658295
  42
-0.15738287
  0
VERTEX
  5
2c1
  8
Layer_2
  10
245.62061
  20
19.719818
  42
-0.27232557
  0
VERTEX
  5
2c2
  8
Layer_2
  10
245.36133
  20
20.200775
  42
-0.023569469
  0
VERTEX
  5
2c3
  8
Layer_2
  10
245.34521
  20
20.630951
  0
VERTEX
  5
2c4
  8
Layer_2
  10
245.34521
  20
24.853607
  0
VERTEX
  5
2c5
  8
Layer_2
  10
246.57617
  20
24.853607
  0
VERTEX
  5
2c6
  8
Layer_2
  10
246.57617
  20
25.805756
  0
VERTEX
  5
2c7
  8
Layer_2
  10
245.34521
  20
25.805756
  0
VERTEX
  5
2c8
  8
Layer_2
  10
245.34521
  20
28.328217
  0
VERTEX
  5
2c9
  8
Layer_2
  10
244.12793
  20
27.593842
  0
VERTEX
  5
2ca
  8
Layer_2
  10
244.12793
  20
25.805756
  0
VERTEX
  5
2cb
  8
Layer_2
  10
243.23047
  20
25.805756
  0
VERTEX
  5
2cc
  8
Layer_2
  10
243.23047
  20
24.853607
  0
VERTEX
  5
2cd
  8
Layer_2
  10
244.12793
  20
24.853607
  0
VERTEX
  5
2ce
  8
Layer_2
  10
244.12793
  20
20.698822
  42
0.065197583
  0
VERTEX
  5
2cf
  8
Layer_2
  10
244.24268
  20
19.351654
  42
0.27550656
  0
VERTEX
  5
2d0
  8
Layer_2
  10
245.23633
  20
18.541595
  42
0.061416001
  0
SEQEND
  0
POLYLINE
  5
2d2
  8
Layer_2
  62
1
  70
1
  66
1
  10
0
  20
0
  30
0
  0
VERTEX
  5
2d2
  8
Layer_2
  10
228.2915
  20
24.363861
  0
VERTEX
  5
2d3
  8
Layer_2
  10
228.2915
  20
27.376068
  42
-0.012318773
  0
VERTEX
  5
2d4
  8
Layer_2
  10
230.78125
  20
27.367767
  42
-0.10276733
  0
VERTEX
  5
2d5
  8
Layer_2
  10
232.0083
  20
27.152435
  42
-0.2820308
  0
VERTEX
  5
2d6
  8
Layer_2
  10
232.71826
  20
25.846283
  42
-0.38214941
  0
VERTEX
  5
2d7
  8
Layer_2
  10
231.60205
  20
24.45224
  42
-0.04989389
  0
VERTEX
  5
2d8
  8
Layer_2
  10
230.44678
  20
24.363861
  0
SEQEND
  0
POLYLINE
  5
2da
  8
Layer_2
  62
1
  70
1
  66
1
  10
0
  20
0
  30
0
  0
VERTEX
  5
2da
  8
Layer_2
  10
238.56689
  20
18.435638
  42
0.069507117
  0
VERTEX
  5
2db
  8
Layer_2
  10
239.56201
  20
18.658783
  42
0.084735673
  0
VERTEX
  5
2dc
  8
Layer_2
  10
240.87109
  20
19.474701
  0
VERTEX
  5
2dd
  8
Layer_2
  10
240.90674
  20
19.228119
  42
0.07055859
  0
VERTEX
  5
2de
  8
Layer_2
  10
241.11572
  20
18.584076
  0
VERTEX
  5
2df
  8
Layer_2
  10
242.39404
  20
18.584076
  42
-0.1324057
  0
VERTEX
  5
2e0
  8
Layer_2
  10
242.02637
  20
20.216888
  42
-0.0068400167
  0
VERTEX
  5
2e1
  8
Layer_2
  10
241.99805
  20
23.783295
  0
VERTEX
  5
2e2
  8
Layer_2
  10
241.99121
  20
23.93222
  42
0.20331827
  0
VERTEX
  5
2e3
  8
Layer_2
  10
241.40967
  20
25.36142
  42
0.13742273
  0
VERTEX
  5
2e4
  8
Layer_2
  10
240.0498
  20
25.914154
  42
0.11517094
  0
VERTEX
  5
2e5
  8
Layer_2
  10
237.57324
  20
25.713959
  42
0.25837422
  0
VERTEX
  5
2e6
  8
Layer_2
  10
236.04932
  20
24.110931
  0
VERTEX
  5
2e7
  8
Layer_2
  10
235.95459
  20
23.745209
  0
VERTEX
  5
2e8
  8
Layer_2
  10
237.15137
  20
23.582123
  0
VERTEX
  5
2e9
  8
Layer_2
  10
237.2041
  20
23.766693
  42
-0.19212068
  0
VERTEX
  5
2ea
  8
Layer_2
  10
237.87012
  20
24.723724
  42
-0.14366635
  0
VERTEX
  5
2eb
  8
Layer_2
  10
239.46924
  20
24.929779
  42
-0.18270632
  0
VERTEX
  5
2ec
  8
Layer_2
  10
240.51025
  20
24.457611
  42
-0.16992149
  0
VERTEX
  5
2ed
  8
Layer_2
  10
240.77588
  20
23.486908
  0
VERTEX
  5
2ee
  8
Layer_2
  10
240.76904
  20
23.167084
  42
-0.045898197
  0
VERTEX
  5
2ef
  8
Layer_2
  10
238.94482
  20
22.791107
  0
VERTEX
  5
2f0
  8
Layer_2
  10
238.24561
  20
22.700775
  42
0.12538377
  0
VERTEX
  5
2f1
  8
Layer_2
  10
236.61768
  20
22.160736
  42
0.38260825
  0
VERTEX
  5
2f2
  8
Layer_2
  10
235.99365
  20
19.483978
  42
0.24016343
  0
VERTEX
  5
2f3
  8
Layer_2
  10
237.65186
  20
18.457123
  42
0.052982673
  0
SEQEND
  0
POLYLINE
  5
2f5
  8
Layer_2
  62
1
  70
1
  66
1
  10
0
  20
0
  30
0
  0
VERTEX
  5
2f5
  8
Layer_2
  10
256.72803
  20
22.364838
  0
VERTEX
  5
2f6
  8
Layer_2
  10
256.74072
  20
22.74472
  42
-0.082262267
  0
VERTEX
  5
2f7
  8
Layer_2
  10
257.01172
  20
23.995209
  42
-0.38798536
  0
VERTEX
  5
2f8
  8
Layer_2
  10
258.55713
  20
24.637787
  42
-0.062258473
  0
VERTEX
  5
2f9
  8
Layer_2
  10
259.00586
  20
24.438568
  0
VERTEX
  5
2fa
  8
Layer_2
  10
259.42773
  20
25.57431
  42
0.14046171
  0
VERTEX
  5
2fb
  8
Layer_2
  10
258.16992
  20
25.968842
  42
0.26245737
  0
VERTEX
  5
2fc
  8
Layer_2
  10
256.91309
  20
25.21347
  42
0.026670649
  0
VERTEX
  5
2fd
  8
Layer_2
  10
256.60596
  20
24.710541
  0
VERTEX
  5
2fe
  8
Layer_2
  10
256.60596
  20
25.805756
  0
VERTEX
  5
2ff
  8
Layer_2
  10
255.50439
  20
25.805756
  0
VERTEX
  5
300
  8
Layer_2
  10
255.50439
  20
18.584076
  0
VERTEX
  5
301
  8
Layer_2
  10
256.72803
  20
18.584076
  0
SEQEND
  0
POLYLINE
  5
303
  8
Layer_2
  62
1
  70
1
  66
1
  10
0
  20
0
  30
0
  0
VERTEX
  5
303
  8
Layer_2
  10
263.54932
  20
18.448822
  42
0.18932041
  0
VERTEX
  5
304
  8
Layer_2
  10
265.68018
  20
19.554779
  42
0.14996463
  0
VERTEX
  5
305
  8
Layer_2
  10
266.40674
  20
21.335052
  42
0.11368594
  0
VERTEX
  5
306
  8
Layer_2
  10
266.229
  20
23.831146
  42
0.30285932
  0
VERTEX
  5
307
  8
Layer_2
  10
263.44971
  20
25.953705
  42
0.2074026
  0
VERTEX
  5
308
  8
Layer_2
  10
260.81494
  20
25.166595
  42
0.153748
  0
VERTEX
  5
309
  8
Layer_2
  10
259.85645
  20
23.552826
  42
0.13314066
  0
VERTEX
  5
30a
  8
Layer_2
  10
259.93359
  20
20.579681
  42
0.31081584
  0
VERTEX
  5
30b
  8
Layer_2
  10
262.71582
  20
18.436127
  42
0.050475863
  0
SEQEND
  0
POLYLINE
  5
30d
  8
Layer_2
  62
1
  70
1
  66
1
  10
0
  20
0
  30
0
  0
VERTEX
  5
30d
  8
Layer_2
  10
271.29443
  20
18.448822
  42
0.18929718
  0
VERTEX
  5
30e
  8
Layer_2
  10
273.42529
  20
19.554779
  42
0.14954698
  0
VERTEX
  5
30f
  8
Layer_2
  10
274.15186
  20
21.335052
  42
0.11364955
  0
VERTEX
  5
310
  8
Layer_2
  10
273.97412
  20
23.831146
  42
0.30284162
  0
VERTEX
  5
311
  8
Layer_2
  10
271.19482
  20
25.953705
  42
0.20738362
  0
VERTEX
  5
312
  8
Layer_2
  10
268.55957
  20
25.166595
  42
0.1535936
  0
VERTEX
  5
313
  8
Layer_2
  10
267.60156
  20
23.552826
  42
0.133019
  0
VERTEX
  5
314
  8
Layer_2
  10
267.67822
  20
20.579681
  42
0.31079315
  0
VERTEX
  5
315
  8
Layer_2
  10
270.46094
  20
18.436127
  42
0.050475538
  0
SEQEND
  0
POLYLINE
  5
317
  8
Layer_2
  62
1
  70
1
  66
1
  10
0
  20
0
  30
0
  0
VERTEX
  5
317
  8
Layer_2
  10
276.86914
  20
22.330658
  0
VERTEX
  5
318
  8
Layer_2
  10
276.87207
  20
22.569916
  42
-0.11594104
  0
VERTEX
  5
319
  8
Layer_2
  10
277.18018
  20
24.086517
  42
-0.35817691
  0
VERTEX
  5
31a
  8
Layer_2
  10
279.24219
  20
24.805756
  42
-0.25261083
  0
VERTEX
  5
31b
  8
Layer_2
  10
279.86084
  20
23.989838
  42
-0.059068584
  0
VERTEX
  5
31c
  8
Layer_2
  10
279.93604
  20
23.27597
  0
VERTEX
  5
31d
  8
Layer_2
  10
279.93604
  20
18.584076
  0
VERTEX
  5
31e
  8
Layer_2
  10
281.15967
  20
18.584076
  0
VERTEX
  5
31f
  8
Layer_2
  10
281.15967
  20
22.779388
  42
-0.12903655
  0
VERTEX
  5
320
  8
Layer_2
  10
281.44287
  20
24.109955
  42
-0.36018847
  0
VERTEX
  5
321
  8
Layer_2
  10
283.49902
  20
24.796967
  42
-0.2999641
  0
VERTEX
  5
322
  8
Layer_2
  10
284.18311
  20
23.76474
  42
-0.027921857
  0
VERTEX
  5
323
  8
Layer_2
  10
284.21289
  20
23.133392
  0
VERTEX
  5
324
  8
Layer_2
  10
284.21289
  20
18.584076
  0
VERTEX
  5
325
  8
Layer_2
  10
285.43018
  20
18.584076
  0
VERTEX
  5
326
  8
Layer_2
  10
285.43018
  20
23.541107
  42
0.1295039
  0
VERTEX
  5
327
  8
Layer_2
  10
285.10498
  20
25.036224
  42
0.23383668
  0
VERTEX
  5
328
  8
Layer_2
  10
283.70605
  20
25.931732
  42
0.27965798
  0
VERTEX
  5
329
  8
Layer_2
  10
281.19189
  20
25.00058
  0
VERTEX
  5
32a
  8
Layer_2
  10
280.96924
  20
24.704193
  0
VERTEX
  5
32b
  8
Layer_2
  10
280.84521
  20
24.98642
  42
0.21397265
  0
VERTEX
  5
32c
  8
Layer_2
  10
279.65967
  20
25.885345
  42
0.18814352
  0
VERTEX
  5
32d
  8
Layer_2
  10
277.64453
  20
25.645599
  42
0.12248237
  0
VERTEX
  5
32e
  8
Layer_2
  10
276.73975
  20
24.792572
  0
VERTEX
  5
32f
  8
Layer_2
  10
276.73975
  20
25.805756
  0
VERTEX
  5
330
  8
Layer_2
  10
275.64502
  20
25.805756
  0
VERTEX
  5
331
  8
Layer_2
  10
275.64502
  20
18.584076
  0
VERTEX
  5
332
  8
Layer_2
  10
276.86914
  20
18.584076
  0
SEQEND
  0
POLYLINE
  5
334
  8
Layer_2
  62
1
  70
1
  66
1
  10
0
  20
0
  30
0
  0
VERTEX
  5
334
  8
Layer_2
  10
262.86133
  20
19.43808
  42
-0.16961896
  0
VERTEX
  5
335
  8
Layer_2
  10
261.71875
  20
19.955658
  42
-0.17994082
  0
VERTEX
  5
336
  8
Layer_2
  10
260.99561
  20
21.545013
  42
-0.11957919
  0
VERTEX
  5
337
  8
Layer_2
  10
261.19385
  20
23.655365
  42
-0.40337564
  0
VERTEX
  5
338
  8
Layer_2
  10
263.72266
  20
24.85849
  42
-0.24761061
  0
VERTEX
  5
339
  8
Layer_2
  10
265.05518
  20
23.412689
  42
-0.14723347
  0
VERTEX
  5
33a
  8
Layer_2
  10
264.97119
  20
20.743256
  42
-0.34835979
  0
SEQEND
  0
POLYLINE
  5
33c
  8
Layer_2
  62
1
  70
1
  66
1
  10
0
  20
0
  30
0
  0
VERTEX
  5
33c
  8
Layer_2
  10
270.60645
  20
19.43808
  42
-0.082379432
  0
VERTEX
  5
33d
  8
Layer_2
  10
269.99121
  20
19.599701
  42
-0.22298386
  0
VERTEX
  5
33e
  8
Layer_2
  10
268.854
  20
20.982025
  42
-0.14771128
  0
VERTEX
  5
33f
  8
Layer_2
  10
268.93896
  20
23.655365
  42
-0.374659
  0
VERTEX
  5
340
  8
Layer_2
  10
271.26465
  20
24.912201
  42
-0.27871041
  0
VERTEX
  5
341
  8
Layer_2
  10
272.80029
  20
23.412689
  42
-0.1469388
  0
VERTEX
  5
342
  8
Layer_2
  10
272.71631
  20
20.743256
  42
-0.34830666
  0
SEQEND
  0
POLYLINE
  5
344
  8
Layer_2
  62
1
  70
1
  66
1
  10
0
  20
0
  30
0
  0
VERTEX
  5
344
  8
Layer_2
  10
228.2915
  20
19.760345
  0
VERTEX
  5
345
  8
Layer_2
  10
228.2915
  20
23.187592
  42
-0.011438501
  0
VERTEX
  5
346
  8
Layer_2
  10
231.04492
  20
23.177338
  42
-0.10218208
  0
VERTEX
  5
347
  8
Layer_2
  10
232.29443
  20
22.922455
  42
-0.28968743
  0
VERTEX
  5
348
  8
Layer_2
  10
233.13281
  20
21.474213
  42
-0.36983999
  0
VERTEX
  5
349
  8
Layer_2
  10
231.88916
  20
19.85556
  42
-0.062901254
  0
VERTEX
  5
34a
  8
Layer_2
  10
230.77344
  20
19.760345
  0
SEQEND
  0
POLYLINE
  5
34c
  8
Layer_2
  62
1
  70
1
  66
1
  10
0
  20
0
  30
0
  0
VERTEX
  5
34c
  8
Layer_2
  10
238.16895
  20
19.399994
  42
-0.21014811
  0
VERTEX
  5
34d
  8
Layer_2
  10
237.25781
  20
19.879486
  42
-0.39628214
  0
VERTEX
  5
34e
  8
Layer_2
  10
237.42529
  20
21.333588
  42
-0.12508961
  0
VERTEX
  5
34f
  8
Layer_2
  10
238.41992
  20
21.690033
  42
-0.0044439805
  0
VERTEX
  5
350
  8
Layer_2
  10
239.09277
  20
21.795013
  0
VERTEX
  5
351
  8
Layer_2
  10
239.39453
  20
21.846283
  42
0.050214275
  0
VERTEX
  5
352
  8
Layer_2
  10
240.76904
  20
22.208588
  42
-0.071835004
  0
VERTEX
  5
353
  8
Layer_2
  10
240.6582
  20
20.76767
  42
-0.23314508
  0
VERTEX
  5
354
  8
Layer_2
  10
239.47754
  20
19.553802
  42
-0.1221495
  0
SEQEND
  0
POLYLINE
  5
356
  8
Layer_2
  62
1
  70
1
  66
1
  10
0
  20
0
  30
0
  0
VERTEX
  5
356
  8
Layer_2
  10
60
  20
151.4451
  0
VERTEX
  5
357
  8
Layer_2
  10
51
  20
151.4451
  0
VERTEX
  5
358
  8
Layer_2
  10
51
  20
160
  0
VERTEX
  5
359
  8
Layer_2
  10
60
  20
160
  0
SEQEND
  0
POLYLINE
  5
35b
  8
Layer_2
  62
1
  70
1
  66
1
  10
0
  20
0
  30
0
  0
VERTEX
  5
35b
  8
Layer_2
  10
59
  20
41
  0
VERTEX
  5
35c
  8
Layer_2
  10
50
  20
41
  0
VERTEX
  5
35d
  8
Layer_2
  10
50
  20
50
  0
VERTEX
  5
35e
  8
Layer_2
  10
59
  20
50
  0
SEQEND
  0
POLYLINE
  5
360
  8
Layer_2
  62
1
  70
1
  66
1
  10
0
  20
0
  30
0
  0
VERTEX
  5
360
  8
Layer_2
  10
250.4451
  20
150.5549
  0
VERTEX
  5
361
  8
Layer_2
  10
241
  20
150.5549
  0
VERTEX
  5
362
  8
Layer_2
  10
241
  20
160
  0
VERTEX
  5
363
  8
Layer_2
  10
250.4451
  20
160
  0
SEQEND
  0
POLYLINE
  5
365
  8
Layer_2
  62
1
  70
1
  66
1
  10
0
  20
0
  30
0
  0
VERTEX
  5
365
  8
Layer_2
  10
249
  20
41
  0
VERTEX
  5
366
  8
Layer_2
  10
240
  20
41
  0
VERTEX
  5
367
  8
Layer_2
  10
240
  20
50
  0
VERTEX
  5
368
  8
Layer_2
  10
249
  20
50
  0
SEQEND
  0
POLYLINE
  5
36a
  8
Layer_2
  62
1
  66
1
  10
0
  20
0
  30
0
  0
VERTEX
  5
36a
  8
Layer_2
  10
60
  20
151.4451
  0
VERTEX
  5
36b
  8
Layer_2
  10
240
  20
50
  0
SEQEND
  0
POLYLINE
  5
36d
  8
Layer_2
  62
1
  66
1
  10
0
  20
0
  30
0
  0
VERTEX
  5
36d
  8
Layer_2
  10
59
  20
50
  0
VERTEX
  5
36e
  8
Layer_2
  10
241
  20
150.5549
  0
SEQEND
  0
POLYLINE
  5
370
  8
Layer_2
  62
1
  70
1
  66
1
  10
0
  20
0
  30
0
  0
VERTEX
  5
370
  8
Layer_2
  10
151.6994
  20
98.748894
  0
VERTEX
  5
371
  8
Layer_2
  10
149.09821
  20
98.748894
  0
VERTEX
  5
372
  8
Layer_2
  10
149.09821
  20
102.24668
  0
VERTEX
  5
373
  8
Layer_2
  10
151.6994
  20
102.24668
  0
SEQEND
  0
ENDSEC
  0
EOF
